<svg width="100" height="100" viewBox="0 0 100 100" fill="none" xmlns="http://www.w3.org/2000/svg">
  <path fill-rule="evenodd" clip-rule="evenodd" d="M0 0H100V100H0V0ZM1 1V99H99V1H1Z" fill="#D1D5DB"/>
  <path fill-rule="evenodd" clip-rule="evenodd" d="M10 0H11V100H10V0ZM20 0H21V100H20V0ZM30 0H31V100H30V0ZM40 0H41V100H40V0ZM50 0H51V100H50V0ZM60 0H61V100H60V0ZM70 0H71V100H70V0ZM80 0H81V100H80V0ZM90 0H91V100H90V0Z" fill="#E5E7EB"/>
  <path fill-rule="evenodd" clip-rule="evenodd" d="M0 10V11H100V10H0ZM0 20V21H100V20H0ZM0 30V31H100V30H0ZM0 40V41H100V40H0ZM0 50V51H100V50H0ZM0 60V61H100V60H0ZM0 70V71H100V70H0ZM0 80V81H100V80H0ZM0 90V91H100V90H0Z" fill="#E5E7EB"/>
</svg>